# xmcd
#
# Track frame offsets: 
#        225
#        27085
#        58506
#        86428
#        115727
#        148772
#        170048
#        196822
#        221740
#        275152
#
# Disc length: 4454 seconds
#
# Revision: 0
# Processed by: cddbd v1.5.2PL0 Copyright (c) Steve Scherf et al.
# Submitted via: ExactAudioCopy v0.95b4
#
DISCID=9311630a
DTITLE=Mem Shannon - Live - A Night at Tipitina's
DYEAR=2007
DGENRE=Blues
TTITLE0=Payin' my Dues
TTITLE1=Smell Something
TTITLE2=No Religion
TTITLE3=Who are They
TTITLE4=All I Have
TTITLE5=I Won't Back Down
TTITLE6=No Such Thing
TTITLE7=Forget About me
TTITLE8=Voodoo
TTITLE9=Phunkville
EXTD=
EXTT0=
EXTT1=
EXTT2=
EXTT3=
EXTT4=
EXTT5=
EXTT6=
EXTT7=
EXTT8=
EXTT9=
PLAYORDER=
